Coordinates
version=1
nRows=13
nColumns=36
inDegrees=yes

Units are S.I. units (second, meters, Newtons, ...)
If the header above contains a line with 'inDegrees', this indicates whether rotational values are in degrees (yes) or radians (no).

endheader
time	pelvis_tilt	pelvis_list	pelvis_rotation	pelvis_tx	pelvis_ty	pelvis_tz	hip_flexion_r	hip_adduction_r	hip_rotation_r	knee_angle_r	knee_angle_r_beta	ankle_angle_r	subtalar_angle_r	mtp_angle_r	hip_flexion_l	hip_adduction_l	hip_rotation_l	knee_angle_l	knee_angle_l_beta	ankle_angle_l	subtalar_angle_l	mtp_angle_l	lumbar_extension	lumbar_bending	lumbar_rotation	arm_flex_r	arm_add_r	arm_rot_r	elbow_flex_r	pro_sup_r	arm_flex_l	arm_add_l	arm_rot_l	elbow_flex_l	pro_sup_l
      1.28000000	    -15.95116630	     -1.10334112	      1.09574401	     -0.69363167	      1.31209787	     -0.58992706	     15.61909894	     -1.32247356	      0.73440300	     40.00163866	      0.69816030	    -24.87985241	    -17.99469296	     -4.95561105	     16.30841184	     -2.33490111	      6.03622060	     38.31942874	      0.66880020	    -27.96751427	     -8.97981282	     -4.95561105	      5.61265559	      1.95491842	     -3.34568856	     27.81414502	    -14.41896188	      6.65545112	     57.25939353	    107.89716058	     25.62464592	    -15.32460080	      4.58742379	     45.68394536	    103.43487152
      1.29000000	    -15.77935167	     -1.07969294	      1.13658074	     -0.68267186	      1.31516170	     -0.59015302	     16.64075822	     -1.53677991	      0.47604804	     41.06348986	      0.71669310	    -24.40376988	    -18.58955070	     -5.00544558	     17.04232782	     -2.52881488	      6.15264738	     38.30824178	      0.66860495	    -27.51181078	     -7.93145927	     -5.00544558	      5.11828580	      1.96361943	     -3.41368821	     26.42799421	    -14.51556826	      6.07677296	     56.52422319	    107.77365070	     24.13700454	    -15.64829041	      3.65459182	     45.17074608	    103.58247387
      1.30000000	    -15.43665553	     -1.08157675	      1.11550575	     -0.67188608	      1.31763442	     -0.59045757	     17.35657541	     -1.75202436	      0.16136197	     41.50327472	      0.72436879	    -23.91712890	    -18.78111922	     -5.44728943	     17.52928298	     -2.81922522	      6.02707277	     37.94334803	      0.66223635	    -26.32671392	     -6.10443812	     -5.44728943	      4.30374178	      2.02274656	     -3.98239111	     25.59861111	    -14.29461203	      6.13114750	     54.93334852	    107.70739888	     21.81949902	    -15.83690475	      0.26900190	     45.66659097	    105.65264277
      1.31000000	    -15.10180365	     -1.00581230	      1.01541860	     -0.66131688	      1.31921843	     -0.59071609	     18.02347931	     -2.05422120	     -0.19113896	     41.49155080	      0.72416417	    -23.54093302	    -19.07345130	     -5.52295956	     17.98152568	     -3.04258574	      5.69843922	     37.29114696	      0.65085330	    -25.32360231	     -4.63389409	     -5.52295956	      3.40149477	      1.91067850	     -3.57582095	     23.90027052	    -14.52746219	      4.99179919	     54.12748315	    107.58856231	     20.53057751	    -15.80559752	     -0.84456872	     44.93644711	    105.70895359
      1.32000000	    -14.72562357	     -0.94525609	      0.91398584	     -0.65090520	      1.31993468	     -0.59099901	     18.55140337	     -2.34780613	     -0.65058430	     41.00303780	      0.71563801	    -23.35321865	    -19.40887035	     -5.61922371	     18.40729547	     -3.27107655	      5.31728830	     36.49695270	      0.63699199	    -24.24078301	     -3.26019723	     -5.61922371	      2.29139740	      1.73124444	     -2.86088451	     21.80991175	    -14.90109432	      3.41243041	     53.70904271	    107.52676068	     19.42316786	    -15.61839658	     -1.78729325	     44.27479220	    105.74397357
      1.33000000	    -14.44857696	     -0.89980070	      0.88628411	     -0.64077428	      1.31957494	     -0.59150760	     19.15329124	     -2.70975625	     -1.33701679	     40.21746806	      0.70192723	    -23.17092332	    -19.53679523	     -5.62670183	     19.02070323	     -3.46115843	      4.86655149	     35.65127346	      0.62223210	    -23.89453056	     -3.13587162	     -5.62670183	      1.16679183	      1.61442548	     -2.55824254	     20.09124818	    -15.37219092	      3.07883209	     52.92016743	    107.46697210	     18.00295100	    -15.85973931	     -2.08343747	     43.73460294	    105.67075226
      1.34000000	    -13.95054920	     -0.81950679	      0.81205548	     -0.63070098	      1.31868307	     -0.59164839	     19.42737448	     -3.02951763	     -1.89559207	     39.04659234	      0.68149160	    -23.31620497	    -19.71346230	     -5.68301172	     19.30443439	     -3.67491844	      4.46762246	     34.55852620	      0.60316007	    -22.90505714	     -1.51237081	     -5.68301172	     -0.35677140	      1.43750964	     -1.85889684	     17.99951393	    -15.41948328	      0.62091717	     52.32978419	    107.36584417	     16.93369612	    -15.43892058	     -4.07323956	     43.01137076	    105.40885256
      1.35000000	    -13.67442546	     -0.78788353	      0.68756288	     -0.62072298	      1.31652943	     -0.59152505	     19.92577205	     -3.24205823	     -2.41212464	     37.62885286	      0.65674738	    -23.73118223	    -19.96331522	     -5.74647038	     19.88033115	     -3.97888724	      3.84252745	     33.47666778	      0.58427808	    -22.45887033	     -0.80399677	     -5.74647038	     -1.68579411	      1.38909441	     -1.39031119	     16.02939473	    -15.54942075	     -0.76377767	     51.85330180	    107.39514574	     15.41361431	    -15.48400601	     -5.16316772	     42.77808437	    105.37779744
      1.36000000	    -13.40050862	     -0.67086645	      0.50395502	     -0.61062395	      1.31346973	     -0.59126379	     20.35712995	     -3.48825394	     -2.80401227	     35.93310684	      0.62715102	    -24.08876180	    -19.90192234	     -5.77138217	     20.36299629	     -4.19011095	      3.21655105	     32.20073283	      0.56200881	    -22.33821979	     -0.49111973	     -5.77138217	     -2.94945613	      1.32091310	     -1.06163000	     14.26770178	    -15.64559326	     -1.32737450	     50.86673228	    107.26902579	     13.70613044	    -15.81498493	     -5.62489902	     42.47217620	    105.31098162
      1.37000000	    -13.03610476	     -0.55437312	      0.39547847	     -0.60049893	      1.30952678	     -0.59103470	     20.61442635	     -3.69659521	     -3.24893626	     33.95483457	      0.59262366	    -25.47053434	    -20.70904169	     -5.85820822	     20.81585427	     -4.46785104	      2.40915621	     30.99493191	      0.54096361	    -22.06409821	      0.20874750	     -5.85820822	     -4.39375631	      1.26236144	     -1.21478929	     12.83995390	    -15.25698378	     -2.64722220	     49.69547300	    107.32436164	     11.49535785	    -16.06977272	     -7.35159337	     42.69146858	    105.53431660
      1.38000000	    -12.99581044	     -0.31663701	      0.42668492	     -0.59041858	      1.30395393	     -0.59131884	     21.26241276	     -4.19276517	     -3.91363832	     32.11689756	      0.56054561	    -25.61441831	    -20.41226728	     -5.86953188	     21.72141195	     -4.54214125	      1.61480593	     29.92868704	      0.52235413	    -21.87794451	      0.23586531	     -5.86953188	     -5.42900918	      1.04523194	     -1.21307302	     10.98252012	    -15.42177350	     -2.84700626	     48.87944850	    107.21559888	      9.58653628	    -16.43406781	     -7.62613617	     42.02836342	    105.45077646
      1.39000000	    -13.02902803	     -0.22362502	      0.61194802	     -0.58031732	      1.29736423	     -0.59196693	     21.79353060	     -4.56229278	     -4.45614056	     29.84760576	      0.52093899	    -26.45629634	    -19.54976265	     -5.88886258	     22.66975415	     -4.61811982	      1.39834141	     28.71060015	      0.50109450	    -22.00425256	      0.38084834	     -5.88886258	     -6.38101115	      0.97054680	     -1.41957558	      9.18276338	    -15.40876299	     -3.38386044	     47.71687764	    107.11443642	      7.61329113	    -16.65252111	     -8.00140214	     41.19876423	    105.48824156
      1.40000000	    -13.15893727	     -0.13882755	      0.89800562	     -0.57018900	      1.28943484	     -0.59274728	     22.48519610	     -5.04644504	     -5.37487952	     27.75150940	      0.48435521	    -27.10716392	    -18.73237959	     -5.92601547	     23.80371450	     -4.63502911	      1.19322392	     27.62078591	      0.48207366	    -22.31010536	     -0.17084290	     -5.92601547	     -7.17800710	      0.90231231	     -1.71544617	      7.38364398	    -15.32935783	     -4.16264867	     46.42421895	    107.07094662	      5.64983625	    -16.82122640	     -8.52880001	     40.22909585	    105.80107448
